<?xml version="1.0"?>
<svg version="1.1" xmlns="http://www.w3.org/2000/svg" xmlns:xlink="http://www.w3.org/1999/xlink" viewBox="0 0 500 200">
    <desc iVinci="yes" version="4.4" gridStep="20" showGrid="no" snapToGrid="no" codePlatform="0"/>
    <g id="Layer1">
        <g id="Shape1">
            <desc type="0" basicInfo-basicType="0" basicInfo-roundedRectRadius="12" basicInfo-polygonSides="6" basicInfo-starPoints="5" bounding="rect(-397.031,-147.66,794.062,295.32)" text="" font-familyName="" font-pixelSize="20" font-bold="0" font-underline="0" font-alignment="1" strokeStyle="0" markerStart="0" markerEnd="0" shadowEnabled="0" shadowOffsetX="0" shadowOffsetY="2" shadowBlur="4" shadowOpacity="160" blurEnabled="0" blurRadius="4" transform="matrix(0.532037,0,0,0.532037,226.665,100)" pers-center="0,0" pers-size="0,0" pers-start="0,0" pers-end="0,0" locked="0" mesh="" flag=""/>
            <path id="shapePath1" d="M140.59,48.4101 C149.517,45.9112 155.588,39.4841 165.229,37.6986 C169.871,36.6271 174.155,35.9131 178.441,35.1991 C183.439,34.4851 187.01,35.9131 192.009,35.5567 C192.009,34.8421 192.009,34.1276 192.009,33.4141 C199.507,33.7711 207.006,34.8427 214.147,35.9131 C240.928,39.8406 268.78,43.4122 295.203,37.3422 C296.274,35.5572 299.488,35.5572 301.63,35.5572 C301.273,35.1996 300.916,34.8427 300.916,34.4857 C303.059,34.4857 305.558,34.4857 306.272,32.7007 C308.057,33.4147 310.2,33.4147 311.985,32.7007 C311.628,32.3431 311.271,31.6291 310.913,31.2716 C313.77,31.6291 316.27,32.7007 319.127,32.7007 C318.412,32.3431 318.055,31.2716 317.342,30.9152 L322.501,31.2626 C327.288,31.2961 331.955,33.553 336.524,35.098 C336.515,34.8996 336.554,34.6618 336.538,34.4777 C337.96,34.6442 339.284,35.8514 340.75,35.6615 C340.789,35.5088 340.578,35.5306 340.606,35.3731 C341.871,35.5242 342.953,36.9697 344.283,36.7298 C344.365,36.5606 344.44,36.4191 344.527,36.2557 C345.158,36.5681 345.951,37.3384 346.619,37.4821 C347.257,37.6194 347.426,36.9958 348.038,37.0682 C349.485,37.2384 350.596,38.4898 352.266,38.3302 C352.33,37.7433 352.283,37.1352 352.14,36.6016 C353.44,37.0384 354.764,38.2089 356.169,38.1525 C356.192,37.9843 356.186,37.8284 356.223,37.6603 C357.383,38.1397 358.561,39.1091 359.895,39.0351 C360.615,38.3009 362.556,39.7337 363.799,39.5671 C363.658,39.3761 363.531,38.959 363.307,38.743 C364.204,38.9064 372.526,42.2917 370.224,39.2793 C373.007,39.3416 375.969,41.5767 378.853,40.445 C380.089,39.9598 381.152,38.6068 382.314,37.8689 C383.342,37.2161 384.637,36.6468 385.813,36.0908 C390.087,34.0717 394.485,31.0163 397.911,27.5873 C399.363,26.1348 408.889,17.4653 408.553,23.6236 C409.704,21.9998 411.466,21.4885 413.341,21.8242 C416.02,22.3047 415.169,24.0652 414.676,26.2971 C414.365,27.7048 413.786,29.0089 413.172,30.2373 C412.429,31.7249 412.254,32.6943 411.887,34.2819 C411.285,36.8867 410.1,39.4352 409.266,41.9033 C408.339,44.6444 407.77,46.9641 409.187,49.5242 C410.352,51.6252 412.709,53.3911 414.405,55.3426 C418.22,59.7329 421.221,63.9259 422.307,69.5703 C423.351,75.003 421.709,80.9293 424.116,85.8906 C426.233,90.2538 429.418,94.641 432.229,98.6946 C433.739,100.872 435.149,103.195 436.885,105.216 C438.589,107.201 438.138,109.814 435.604,111.202 C433.407,112.405 430.678,112.571 428.199,112.98 C425.678,113.395 423.26,115.58 420.568,115.152 C415.684,114.376 410.815,111.119 406.207,109.074 C403.197,107.737 400.02,106.448 396.946,105.083 C394.089,103.813 391.567,101.963 388.512,101.354 C381.898,100.034 375.185,98.0817 368.605,96.3547 C365.038,95.4172 360.852,95.4433 357.119,94.9208 C354.179,94.5096 351.125,94.2882 348.215,94.0004 C345.181,93.7009 343.228,94.5042 340.551,95.4231 C338.351,96.1786 333.85,99.4165 333.66,99.2532 C333.288,100.269 333.753,101.539 333.638,102.68 C333.338,102.003 332.77,101.429 332.113,101.156 C332.147,101.686 331.945,102.169 331.904,102.672 C331.416,102.11 330.759,101.572 330.344,101.152 C330.385,101.708 330.173,102.183 330.087,102.717 C329.584,102.4 328.992,102.096 328.389,101.924 C328.181,102.382 328.02,103.024 327.968,103.598 C327.06,103.465 326.352,102.513 325.768,101.866 C325.961,102.422 326.249,103.15 326.45,103.777 C326.521,103.837 326.524,103.834 326.459,103.766 C325.794,102.902 324.746,102.234 323.638,102.439 C322.266,105.898 329.536,107.357 331.624,108.401 C338.408,111.971 345.193,114.471 351.977,117.328 C359.834,120.898 359.12,126.611 356.263,134.467 C353.407,141.608 349.478,148.75 342.694,152.321 C336.981,155.534 331.267,154.463 333.41,146.25 C335.195,140.181 345.55,139.823 345.907,132.681 C346.264,127.683 337.694,129.468 333.41,128.397 C327.697,127.325 322.34,125.54 316.985,123.755 C316.627,130.896 318.056,137.68 319.127,144.465 C319.841,151.607 318.77,157.676 324.126,163.389 C326.982,166.246 341.98,171.959 340.551,175.887 C338.409,180.886 324.126,177.672 321.269,175.887 C308.415,168.746 305.916,154.463 301.631,141.965 C297.703,130.539 293.775,118.041 291.633,106.257 L291.276,106.257 L290.918,106.257 C290.204,106.973 288.419,107.329 287.705,108.042 C287.705,106.972 286.634,106.257 286.634,105.186 C285.562,105.901 283.777,105.901 282.706,106.615 C282.706,106.257 281.991,105.543 281.991,104.83 C277.706,106.258 273.778,107.687 269.494,107.687 C269.494,107.329 269.494,106.973 269.494,106.615 C266.638,107.329 263.781,106.973 261.281,108.4 C261.281,107.686 260.21,106.615 259.853,105.901 C258.781,107.329 256.996,108.042 255.211,109.114 C253.426,107.686 253.781,107.686 251.64,109.114 C250.568,109.114 248.426,109.114 247.354,108.758 L246.997,108.758 C245.926,108.4 245.212,108.4 244.14,107.686 C243.07,108.758 241.641,109.114 240.57,110.185 C240.57,110.185 239.856,109.113 239.856,108.757 C239.498,109.113 238.071,109.829 237.357,109.829 C236.999,109.113 236.285,108.042 236.285,107.328 C235.928,107.686 235.214,108.4 234.856,108.758 C234.142,107.328 233.071,106.257 232.357,105.186 C232,105.901 231.286,106.615 231.286,107.328 C230.572,106.972 230.214,105.9 229.857,105.543 C229.143,105.901 228.786,106.615 228.429,106.973 C228.071,105.901 227.357,105.186 227,104.472 C226.286,105.186 225.572,105.902 225.215,106.973 C224.858,106.615 224.858,105.543 224.501,105.543 C224.143,105.901 223.787,106.615 223.073,106.973 C222.001,105.543 220.573,104.472 219.501,103.045 L219.145,103.045 C212.36,115.185 204.148,115.542 190.936,115.185 L191.293,115.185 L190.936,115.185 C188.437,119.827 184.509,123.754 179.509,125.897 L165.227,131.253 C161.655,134.823 170.939,148.75 172.011,154.463 C173.082,158.39 172.368,173.744 164.156,167.674 C161.655,165.889 161.655,160.176 161.299,157.676 C160.584,153.748 159.514,151.249 157.727,147.678 C155.942,144.464 153.8,139.822 150.944,137.323 C144.159,142.679 139.874,145.893 142.374,154.463 C143.088,157.676 143.445,161.604 144.516,164.46 C146.301,168.746 149.872,168.388 152.014,171.602 C156.3,178.386 141.303,178.743 137.017,176.244 C131.304,172.673 129.876,162.318 128.448,156.248 C127.376,151.249 124.52,141.251 126.305,135.895 C128.091,130.539 139.16,126.611 144.16,123.397 C142.017,120.184 139.518,113.756 142.375,110.186 C144.516,107.329 152.372,106.615 155.587,104.472 C166.298,97.3315 149.516,88.4044 152.015,78.4064 C146.659,85.5479 142.731,101.616 135.233,105.186 L135.233,105.902 C134.519,106.258 133.805,106.973 133.09,107.33 C132.734,106.616 132.019,105.902 131.662,105.187 C130.591,106.973 129.162,108.759 127.377,109.83 C127.377,109.473 127.377,108.759 127.377,108.401 C126.663,109.473 125.235,110.186 124.52,111.615 C124.878,110.544 124.52,109.473 124.878,108.401 C124.164,109.473 123.093,110.186 122.379,111.258 C122.379,110.9 122.379,110.544 122.379,110.544 C121.307,111.258 120.236,112.329 119.522,113.4 L119.522,113.043 C119.522,114.114 118.807,114.828 118.807,115.899 C118.807,115.899 116.308,116.613 115.951,116.613 C115.951,116.257 115.594,114.828 115.594,114.114 C114.88,114.114 114.88,115.186 114.165,115.186 C114.165,114.828 114.523,113.757 114.165,113.401 C113.451,114.115 112.38,114.829 112.024,115.543 C111.666,115.186 111.309,114.114 111.309,113.401 C110.595,114.115 109.167,114.472 108.452,115.186 C108.452,114.828 108.81,114.472 108.096,113.757 C104.168,116.613 102.025,119.113 99.1688,123.041 C98.8112,121.97 98.8112,119.827 98.8112,118.756 L98.8112,119.113 C99.5263,118.756 99.8828,118.042 100.597,118.042 C98.8112,118.756 97.0257,119.47 95.2407,120.184 C95.2407,119.469 94.8843,119.113 94.5267,118.399 C93.8127,119.47 92.0278,119.827 91.3127,120.898 C90.9562,120.184 90.5987,119.827 90.2412,119.113 C88.4562,120.185 86.6707,121.97 85.2427,123.398 C84.8852,123.041 84.8852,122.684 84.8852,122.326 C83.4572,123.755 82.0287,124.469 81.3147,125.898 C81.6711,124.826 80.9571,123.398 81.3147,122.326 C79.5297,123.755 78.1006,125.898 76.3156,127.683 C75.9581,127.325 75.6017,126.254 75.2441,125.898 L75.2441,126.254 L74.8876,126.254 C73.1016,127.683 71.6736,129.111 69.8886,130.182 C69.8886,129.468 69.1746,128.754 69.1746,127.683 C67.7456,129.468 65.9606,131.611 64.1756,133.396 C63.8181,132.325 63.4616,131.254 63.4616,130.54 L63.1041,130.54 C61.6761,133.039 59.5336,135.182 57.7486,137.324 C57.7486,135.538 56.6771,134.11 56.6771,132.325 C55.248,134.468 53.8206,136.967 51.3205,138.395 C51.3205,137.324 50.2501,135.538 50.2501,134.468 C48.1076,136.253 45.607,137.681 43.108,137.681 C43.108,136.967 43.108,136.253 43.108,135.538 C40.9655,138.395 39.18,141.251 37.0375,144.465 C37.0375,144.465 37.0375,143.394 37.0375,143.037 C36.3235,143.394 35.2525,144.108 34.1809,144.465 C34.5385,143.751 34.5385,142.68 34.5385,141.966 L34.5385,142.323 L34.5385,141.966 C33.8245,144.108 32.396,145.894 30.6104,147.679 C30.968,146.25 30.6104,144.823 30.6104,143.751 C29.5389,145.179 27.7539,145.894 26.6824,147.322 C26.3259,145.894 25.2544,144.823 25.2544,143.394 C24.5404,143.751 23.8254,144.465 23.4694,144.823 C23.4694,143.751 22.7544,142.323 22.7544,141.251 C22.0404,141.966 20.6129,142.68 20.2554,143.394 C19.8979,141.966 18.8274,140.181 18.8274,138.752 C18.4699,139.109 17.7559,139.466 17.3984,139.823 C17.3984,138.752 16.6844,136.967 17.0408,135.895 C16.3268,136.253 15.9704,136.967 15.6128,137.324 C14.5413,133.396 18.4694,130.896 19.5409,127.683 C20.6124,124.469 20.2549,122.684 22.7539,119.47 C27.0394,114.114 32.0384,110.9 38.1079,107.687 C49.8915,101.617 59.5331,91.9755 72.0306,87.3335 C70.2446,87.691 68.4591,87.691 66.6741,87.691 C72.3871,83.763 79.5291,80.9059 85.5986,78.0494 C92.7407,74.8364 97.7397,70.5509 103.81,65.5518 C115.593,55.9108 126.305,50.1978 141.303,48.0558 " style="stroke:none;fill-rule:evenodd;fill:#ffffff;fill-opacity:1;"/>
        </g>
        <g id="Shape2">
            <desc type="0" basicInfo-basicType="0" basicInfo-roundedRectRadius="12" basicInfo-polygonSides="6" basicInfo-starPoints="5" bounding="rect(-39.3301,-23.8084,78.6602,47.6167)" text="" font-familyName="" font-pixelSize="20" font-bold="0" font-underline="0" font-alignment="1" strokeStyle="0" markerStart="0" markerEnd="0" shadowEnabled="0" shadowOffsetX="0" shadowOffsetY="2" shadowBlur="4" shadowOpacity="160" blurEnabled="0" blurRadius="4" transform="matrix(0.532037,0,0,0.532037,463.645,121.947)" pers-center="0,0" pers-size="0,0" pers-start="0,0" pers-end="0,0" locked="0" mesh="" flag=""/>
            <path id="shapePath2" d="M470.473,115.707 C472.017,115.265 473.783,114.824 475.438,115.045 C478.858,115.486 474.886,117.693 473.121,117.583 C474.775,117.583 476.32,117.914 477.865,118.024 C479.409,118.135 481.065,117.804 482.72,117.804 C485.699,117.804 484.705,118.907 482.389,119.458 C480.734,119.899 478.968,119.899 477.314,120.561 C479.299,120.782 483.161,121.444 484.154,123.32 C483.492,123.872 482.499,124.092 481.616,123.872 C482.388,123.982 484.485,124.423 484.374,125.416 C484.264,126.74 482.168,125.747 481.396,125.526 C479.299,124.864 477.203,124.203 475.106,123.32 C477.313,125.968 478.307,128.175 479.409,131.374 C477.976,131.595 476.982,130.161 475.769,129.499 C476.1,130.051 476.32,130.713 476.431,131.374 C475.879,131.264 475.327,131.485 474.886,131.264 C475.106,132.257 474.775,133.581 473.562,133.471 C473.673,136.119 471.687,133.471 471.245,132.477 C470.804,131.264 470.253,129.609 469.37,128.616 C469.922,130.712 470.032,133.691 467.384,131.595 C465.509,130.271 465.288,128.064 464.295,125.968 C464.295,126.74 463.523,128.285 462.75,128.837 C461.427,129.72 461.096,128.947 460.434,127.734 C459.992,129.057 458.779,128.175 458.669,127.072 C458.007,128.285 457.235,126.631 457.014,125.858 C457.235,127.844 455.359,127.072 454.808,125.969 C454.256,125.086 454.035,123.431 454.477,122.548 C453.704,123.651 452.49,124.424 451.608,125.417 C450.835,126.52 450.615,127.955 449.732,128.838 C448.85,128.286 448.85,127.182 449.291,126.3 C446.091,129.5 446.091,125.196 448.519,123.762 L448.519,123.651 L448.408,123.651 L448.519,123.651 C447.526,123.872 446.091,126.41 445.319,126.41 C443.885,126.3 445.209,122.769 445.65,122.107 C445.429,122.107 445.098,122.107 444.878,122.107 C444.988,121.887 444.988,121.445 445.098,121.225 C444.878,121.225 444.657,121.225 444.436,121.225 C444.767,120.231 445.539,119.459 446.312,118.797 C445.098,119.68 441.236,120.342 443.333,117.914 C444.325,116.701 447.084,116.922 448.518,116.591 C447.195,116.701 445.98,116.37 445.539,114.936 C447.414,113.943 449.621,115.708 451.607,115.708 C454.476,115.708 455.359,114.384 457.013,112.398 C459.882,109.088 466.281,107.654 468.929,111.957 C469.591,113.06 470.142,114.936 470.473,115.818 " style="stroke:none;fill-rule:evenodd;fill:#ffffff;fill-opacity:1;"/>
        </g>
        <g id="Shape3">
            <desc type="0" basicInfo-basicType="0" basicInfo-roundedRectRadius="12" basicInfo-polygonSides="6" basicInfo-starPoints="5" bounding="rect(-12.5,-48.0048,25,96.0095)" text="" font-familyName="" font-pixelSize="20" font-bold="0" font-underline="0" font-alignment="1" strokeStyle="0" markerStart="0" markerEnd="0" shadowEnabled="0" shadowOffsetX="0" shadowOffsetY="2" shadowBlur="4" shadowOpacity="160" blurEnabled="0" blurRadius="4" transform="matrix(0.532037,0,0,0.532037,455.102,147.821)" pers-center="0,0" pers-size="0,0" pers-start="0,0" pers-end="0,0" locked="0" mesh="" flag=""/>
            <path id="shapePath3" d="M460.156,123.078 C460.156,123.078 448.451,154.203 448.451,164.045 C448.451,173.888 450.047,173.356 450.047,173.356 C450.047,173.356 450.907,163.698 454.202,149.906 C457.496,136.113 461.752,122.28 461.752,122.28 L460.156,123.078 Z" style="stroke:none;fill-rule:evenodd;fill:#ffffff;fill-opacity:1;"/>
        </g>
    </g>
</svg>
