<svg width="1388" height="982" xmlns="http://www.w3.org/2000/svg"><g><path d="M-81.53515661135316,-147.70231204340234L-199.52876484487206,274.69216912519187L-16.62944582523778,89.02409062022343Z" fill="#e23a2e" stroke="#e23a2e" fill-opacity="1" stroke-opacity="1"/><path d="M-81.53515661135316,-147.70231204340234L-16.62944582523778,89.02409062022343L96.16283916402608,46.2539922259748Z" fill="#eb332a" stroke="#eb332a" fill-opacity="1" stroke-opacity="1"/><path d="M-81.53515661135316,-147.70231204340234L96.16283916402608,46.2539922259748L220.68492875201628,-114.35357093112543Z" fill="#f32b25" stroke="#f32b25" fill-opacity="1" stroke-opacity="1"/><path d="M-81.53515661135316,-147.70231204340234L220.68492875201628,-114.35357093112543L921.811628958676,-146.77955142455176Z" fill="#ff6740" stroke="#ff6740" fill-opacity="1" stroke-opacity="1"/><path d="M-81.53515661135316,-147.70231204340234L921.811628958676,-146.77955142455176L1359.6452514245175,-181.68961707036942Z" fill="#f27a4e" stroke="#f27a4e" fill-opacity="1" stroke-opacity="1"/><path d="M220.68492875201628,-114.35357093112543L96.16283916402608,46.2539922259748L267.75115984724835,-101.72518755309284Z" fill="#fd4c37" stroke="#fd4c37" fill-opacity="1" stroke-opacity="1"/><path d="M220.68492875201628,-114.35357093112543L267.75115984724835,-101.72518755309284L921.811628958676,-146.77955142455176Z" fill="#ff764f" stroke="#ff764f" fill-opacity="1" stroke-opacity="1"/><path d="M267.75115984724835,-101.72518755309284L96.16283916402608,46.2539922259748L355.1289956504479,109.58718404872343Z" fill="#fe734d" stroke="#fe734d" fill-opacity="1" stroke-opacity="1"/><path d="M267.75115984724835,-101.72518755309284L355.1289956504479,109.58718404872343L631.3657133211382,-58.77510463586077Z" fill="#ff885c" stroke="#ff885c" fill-opacity="1" stroke-opacity="1"/><path d="M267.75115984724835,-101.72518755309284L631.3657133211382,-58.77510463586077L921.811628958676,-146.77955142455176Z" fill="#fe7f5f" stroke="#fe7f5f" fill-opacity="1" stroke-opacity="1"/><path d="M631.3657133211382,-58.77510463586077L355.1289956504479,109.58718404872343L590.6377935921773,204.48041352443397Z" fill="#ffb880" stroke="#ffb880" fill-opacity="1" stroke-opacity="1"/><path d="M631.3657133211382,-58.77510463586077L590.6377935921773,204.48041352443397L848.193823909387,162.8746439376846Z" fill="#f6c180" stroke="#f6c180" fill-opacity="1" stroke-opacity="1"/><path d="M631.3657133211382,-58.77510463586077L848.193823909387,162.8746439376846L921.811628958676,-146.77955142455176Z" fill="#eb8e59" stroke="#eb8e59" fill-opacity="1" stroke-opacity="1"/><path d="M921.811628958676,-146.77955142455176L848.193823909387,162.8746439376846L1040.8221072074957,123.59033866552636Z" fill="#d29b57" stroke="#d29b57" fill-opacity="1" stroke-opacity="1"/><path d="M921.811628958676,-146.77955142455176L1040.8221072074957,123.59033866552636L1046.039885217324,-151.53196012135595Z" fill="#c56c3a" stroke="#c56c3a" fill-opacity="1" stroke-opacity="1"/><path d="M921.811628958676,-146.77955142455176L1046.039885217324,-151.53196012135595L1359.6452514245175,-181.68961707036942Z" fill="#a5572b" stroke="#a5572b" fill-opacity="1" stroke-opacity="1"/><path d="M1046.039885217324,-151.53196012135595L1040.8221072074957,123.59033866552636L1359.6452514245175,-181.68961707036942Z" fill="#995332" stroke="#995332" fill-opacity="1" stroke-opacity="1"/><path d="M1359.6452514245175,-181.68961707036942L1040.8221072074957,123.59033866552636L1397.724429834634,123.51156508550048Z" fill="#806741" stroke="#806741" fill-opacity="1" stroke-opacity="1"/><path d="M1359.6452514245175,-181.68961707036942L1397.724429834634,123.51156508550048L1466.4939790894277,16.346669113263488Z" fill="#804533" stroke="#804533" fill-opacity="1" stroke-opacity="1"/><path d="M1359.6452514245175,-181.68961707036942L1466.4939790894277,16.346669113263488L1617.8014108166099,-18.746815086342394Z" fill="#802826" stroke="#802826" fill-opacity="1" stroke-opacity="1"/><path d="M1617.8014108166099,-18.746815086342394L1466.4939790894277,16.346669113263488L1397.724429834634,123.51156508550048Z" fill="#804f3b" stroke="#804f3b" fill-opacity="1" stroke-opacity="1"/><path d="M1617.8014108166099,-18.746815086342394L1397.724429834634,123.51156508550048L1585.6156526925042,374.8352710646577Z" fill="#807753" stroke="#807753" fill-opacity="1" stroke-opacity="1"/><path d="M1617.8014108166099,-18.746815086342394L1585.6156526925042,374.8352710646577L1663.7977871485054,1050.4648086195812Z" fill="#80907e" stroke="#80907e" fill-opacity="1" stroke-opacity="1"/><path d="M-16.62944582523778,89.02409062022343L-199.52876484487206,274.69216912519187L100.34428016049787,452.78044445905834Z" fill="#e88c60" stroke="#e88c60" fill-opacity="1" stroke-opacity="1"/><path d="M-16.62944582523778,89.02409062022343L100.34428016049787,452.78044445905834L96.16283916402608,46.2539922259748Z" fill="#f18c5c" stroke="#f18c5c" fill-opacity="1" stroke-opacity="1"/><path d="M96.16283916402608,46.2539922259748L100.34428016049787,452.78044445905834L355.1289956504479,109.58718404872343Z" fill="#fcab6d" stroke="#fcab6d" fill-opacity="1" stroke-opacity="1"/><path d="M355.1289956504479,109.58718404872343L100.34428016049787,452.78044445905834L397.61660497868434,438.9183712634258Z" fill="#fed897" stroke="#fed897" fill-opacity="1" stroke-opacity="1"/><path d="M355.1289956504479,109.58718404872343L397.61660497868434,438.9183712634258L590.6377935921773,204.48041352443397Z" fill="#ffeb99" stroke="#ffeb99" fill-opacity="1" stroke-opacity="1"/><path d="M590.6377935921773,204.48041352443397L397.61660497868434,438.9183712634258L613.2716509373859,329.2908009630628Z" fill="#fffab4" stroke="#fffab4" fill-opacity="1" stroke-opacity="1"/><path d="M590.6377935921773,204.48041352443397L613.2716509373859,329.2908009630628L848.193823909387,162.8746439376846Z" fill="#f7ed9d" stroke="#f7ed9d" fill-opacity="1" stroke-opacity="1"/><path d="M848.193823909387,162.8746439376846L613.2716509373859,329.2908009630628L820.940425854642,438.86425729840994Z" fill="#eff9a3" stroke="#eff9a3" fill-opacity="1" stroke-opacity="1"/><path d="M848.193823909387,162.8746439376846L820.940425854642,438.86425729840994L1132.065891539678,270.5547097977251Z" fill="#d3ec8c" stroke="#d3ec8c" fill-opacity="1" stroke-opacity="1"/><path d="M848.193823909387,162.8746439376846L1132.065891539678,270.5547097977251L1040.8221072074957,123.59033866552636Z" fill="#c4c86e" stroke="#c4c86e" fill-opacity="1" stroke-opacity="1"/><path d="M1040.8221072074957,123.59033866552636L1132.065891539678,270.5547097977251L1397.724429834634,123.51156508550048Z" fill="#8daa64" stroke="#8daa64" fill-opacity="1" stroke-opacity="1"/><path d="M1397.724429834634,123.51156508550048L1132.065891539678,270.5547097977251L1345.1021292060614,370.0575228757225Z" fill="#80b672" stroke="#80b672" fill-opacity="1" stroke-opacity="1"/><path d="M1397.724429834634,123.51156508550048L1345.1021292060614,370.0575228757225L1585.6156526925042,374.8352710646577Z" fill="#80a973" stroke="#80a973" fill-opacity="1" stroke-opacity="1"/><path d="M-199.52876484487206,274.69216912519187L-139.07283182255924,905.4098464921117L-151.70141024049371,699.9426733818837Z" fill="#c97e47" stroke="#c97e47" fill-opacity="1" stroke-opacity="1"/><path d="M-199.52876484487206,274.69216912519187L-151.70141024049371,699.9426733818837L100.34428016049787,452.78044445905834Z" fill="#e3846f" stroke="#e3846f" fill-opacity="1" stroke-opacity="1"/><path d="M100.34428016049787,452.78044445905834L-151.70141024049371,699.9426733818837L217.9770812485367,744.3173755402677Z" fill="#dba361" stroke="#dba361" fill-opacity="1" stroke-opacity="1"/><path d="M100.34428016049787,452.78044445905834L217.9770812485367,744.3173755402677L190.23446390870959,501.99332255870104Z" fill="#fac07b" stroke="#fac07b" fill-opacity="1" stroke-opacity="1"/><path d="M100.34428016049787,452.78044445905834L190.23446390870959,501.99332255870104L397.61660497868434,438.9183712634258Z" fill="#fecd99" stroke="#fecd99" fill-opacity="1" stroke-opacity="1"/><path d="M397.61660497868434,438.9183712634258L190.23446390870959,501.99332255870104L386.5271050063893,623.7595997890458Z" fill="#fee198" stroke="#fee198" fill-opacity="1" stroke-opacity="1"/><path d="M397.61660497868434,438.9183712634258L386.5271050063893,623.7595997890458L678.6817809194326,686.4822511514649Z" fill="#f8f6a1" stroke="#f8f6a1" fill-opacity="1" stroke-opacity="1"/><path d="M397.61660497868434,438.9183712634258L678.6817809194326,686.4822511514649L613.2716509373859,329.2908009630628Z" fill="#fffdc0" stroke="#fffdc0" fill-opacity="1" stroke-opacity="1"/><path d="M613.2716509373859,329.2908009630628L678.6817809194326,686.4822511514649L820.940425854642,438.86425729840994Z" fill="#f5fbb5" stroke="#f5fbb5" fill-opacity="1" stroke-opacity="1"/><path d="M820.940425854642,438.86425729840994L678.6817809194326,686.4822511514649L928.3748339186423,586.825410774909Z" fill="#e6f595" stroke="#e6f595" fill-opacity="1" stroke-opacity="1"/><path d="M820.940425854642,438.86425729840994L928.3748339186423,586.825410774909L1132.065891539678,270.5547097977251Z" fill="#ceeaa3" stroke="#ceeaa3" fill-opacity="1" stroke-opacity="1"/><path d="M1132.065891539678,270.5547097977251L928.3748339186423,586.825410774909L1330.877411852125,510.2896947716363Z" fill="#9fd495" stroke="#9fd495" fill-opacity="1" stroke-opacity="1"/><path d="M1132.065891539678,270.5547097977251L1330.877411852125,510.2896947716363L1345.1021292060614,370.0575228757225Z" fill="#80c18f" stroke="#80c18f" fill-opacity="1" stroke-opacity="1"/><path d="M1345.1021292060614,370.0575228757225L1330.877411852125,510.2896947716363L1585.6156526925042,374.8352710646577Z" fill="#80ac90" stroke="#80ac90" fill-opacity="1" stroke-opacity="1"/><path d="M1585.6156526925042,374.8352710646577L1330.877411852125,510.2896947716363L1543.7158633139916,607.8707755892538Z" fill="#80a37d" stroke="#80a37d" fill-opacity="1" stroke-opacity="1"/><path d="M1585.6156526925042,374.8352710646577L1543.7158633139916,607.8707755892538L1663.7977871485054,1050.4648086195812Z" fill="#5e9055" stroke="#5e9055" fill-opacity="1" stroke-opacity="1"/><path d="M-151.70141024049371,699.9426733818837L-139.07283182255924,905.4098464921117L217.9770812485367,744.3173755402677Z" fill="#987b44" stroke="#987b44" fill-opacity="1" stroke-opacity="1"/><path d="M190.23446390870959,501.99332255870104L217.9770812485367,744.3173755402677L386.5271050063893,623.7595997890458Z" fill="#ecd27d" stroke="#ecd27d" fill-opacity="1" stroke-opacity="1"/><path d="M386.5271050063893,623.7595997890458L217.9770812485367,744.3173755402677L425.19522187532857,773.5643175034784Z" fill="#cfde77" stroke="#cfde77" fill-opacity="1" stroke-opacity="1"/><path d="M386.5271050063893,623.7595997890458L425.19522187532857,773.5643175034784L678.6817809194326,686.4822511514649Z" fill="#d8f48d" stroke="#d8f48d" fill-opacity="1" stroke-opacity="1"/><path d="M678.6817809194326,686.4822511514649L425.19522187532857,773.5643175034784L677.9176323814318,825.7193715171888Z" fill="#b8ed95" stroke="#b8ed95" fill-opacity="1" stroke-opacity="1"/><path d="M678.6817809194326,686.4822511514649L677.9176323814318,825.7193715171888L928.3748339186423,586.825410774909Z" fill="#c7f583" stroke="#c7f583" fill-opacity="1" stroke-opacity="1"/><path d="M928.3748339186423,586.825410774909L677.9176323814318,825.7193715171888L1023.9442007057369,679.2638634005561Z" fill="#b5ed77" stroke="#b5ed77" fill-opacity="1" stroke-opacity="1"/><path d="M928.3748339186423,586.825410774909L1023.9442007057369,679.2638634005561L1330.877411852125,510.2896947716363Z" fill="#a0d87a" stroke="#a0d87a" fill-opacity="1" stroke-opacity="1"/><path d="M1023.9442007057369,679.2638634005561L677.9176323814318,825.7193715171888L740.2395059634,944.4667396880686Z" fill="#87d774" stroke="#87d774" fill-opacity="1" stroke-opacity="1"/><path d="M1023.9442007057369,679.2638634005561L740.2395059634,944.4667396880686L1068.1077010254376,899.6341972053051Z" fill="#63c665" stroke="#63c665" fill-opacity="1" stroke-opacity="1"/><path d="M1023.9442007057369,679.2638634005561L1068.1077010254376,899.6341972053051L1327.45897017885,848.7555312481709Z" fill="#3eb55c" stroke="#3eb55c" fill-opacity="1" stroke-opacity="1"/><path d="M1023.9442007057369,679.2638634005561L1327.45897017885,848.7555312481709L1330.877411852125,510.2896947716363Z" fill="#5fc364" stroke="#5fc364" fill-opacity="1" stroke-opacity="1"/><path d="M1330.877411852125,510.2896947716363L1327.45897017885,848.7555312481709L1543.7158633139916,607.8707755892538Z" fill="#64ac61" stroke="#64ac61" fill-opacity="1" stroke-opacity="1"/><path d="M1543.7158633139916,607.8707755892538L1327.45897017885,848.7555312481709L1538.1759804021567,857.1736825327389Z" fill="#349051" stroke="#349051" fill-opacity="1" stroke-opacity="1"/><path d="M1543.7158633139916,607.8707755892538L1538.1759804021567,857.1736825327389L1663.7977871485054,1050.4648086195812Z" fill="#137148" stroke="#137148" fill-opacity="1" stroke-opacity="1"/><path d="M-139.07283182255924,905.4098464921117L-103.42012165579945,1264.3109164014459L-51.23376752715558,1021.6386469337158Z" fill="#632828" stroke="#632828" fill-opacity="1" stroke-opacity="1"/><path d="M-139.07283182255924,905.4098464921117L-51.23376752715558,1021.6386469337158L217.9770812485367,744.3173755402677Z" fill="#6d6941" stroke="#6d6941" fill-opacity="1" stroke-opacity="1"/><path d="M217.9770812485367,744.3173755402677L-51.23376752715558,1021.6386469337158L300.4443871532567,1081.6399358818308Z" fill="#7a7e4f" stroke="#7a7e4f" fill-opacity="1" stroke-opacity="1"/><path d="M217.9770812485367,744.3173755402677L300.4443871532567,1081.6399358818308L425.19522187532857,773.5643175034784Z" fill="#84b469" stroke="#84b469" fill-opacity="1" stroke-opacity="1"/><path d="M425.19522187532857,773.5643175034784L300.4443871532567,1081.6399358818308L503.2595429685898,1115.8396751037799Z" fill="#7fa96d" stroke="#7fa96d" fill-opacity="1" stroke-opacity="1"/><path d="M425.19522187532857,773.5643175034784L503.2595429685898,1115.8396751037799L677.9176323814318,825.7193715171888Z" fill="#80c783" stroke="#80c783" fill-opacity="1" stroke-opacity="1"/><path d="M677.9176323814318,825.7193715171888L503.2595429685898,1115.8396751037799L740.2395059634,944.4667396880686Z" fill="#7bbc81" stroke="#7bbc81" fill-opacity="1" stroke-opacity="1"/><path d="M740.2395059634,944.4667396880686L503.2595429685898,1115.8396751037799L759.406718518585,1361.8295600032434Z" fill="#799172" stroke="#799172" fill-opacity="1" stroke-opacity="1"/><path d="M740.2395059634,944.4667396880686L759.406718518585,1361.8295600032434L919.1553610749543,1015.6976635591127Z" fill="#6a9362" stroke="#6a9362" fill-opacity="1" stroke-opacity="1"/><path d="M740.2395059634,944.4667396880686L919.1553610749543,1015.6976635591127L1068.1077010254376,899.6341972053051Z" fill="#58af61" stroke="#58af61" fill-opacity="1" stroke-opacity="1"/><path d="M1068.1077010254376,899.6341972053051L919.1553610749543,1015.6976635591127L1039.5615931693465,1142.3756984551437Z" fill="#439653" stroke="#439653" fill-opacity="1" stroke-opacity="1"/><path d="M1068.1077010254376,899.6341972053051L1039.5615931693465,1142.3756984551437L1402.3197251139209,1123.4691121126525Z" fill="#13774a" stroke="#13774a" fill-opacity="1" stroke-opacity="1"/><path d="M1068.1077010254376,899.6341972053051L1402.3197251139209,1123.4691121126525L1327.45897017885,848.7555312481709Z" fill="#00814d" stroke="#00814d" fill-opacity="1" stroke-opacity="1"/><path d="M1327.45897017885,848.7555312481709L1402.3197251139209,1123.4691121126525L1538.1759804021567,857.1736825327389Z" fill="#006e47" stroke="#006e47" fill-opacity="1" stroke-opacity="1"/><path d="M1538.1759804021567,857.1736825327389L1402.3197251139209,1123.4691121126525L1663.7977871485054,1050.4648086195812Z" fill="#004f3e" stroke="#004f3e" fill-opacity="1" stroke-opacity="1"/><path d="M-51.23376752715558,1021.6386469337158L-103.42012165579945,1264.3109164014459L63.94571291282773,1146.663459080737Z" fill="#69252b" stroke="#69252b" fill-opacity="1" stroke-opacity="1"/><path d="M-51.23376752715558,1021.6386469337158L63.94571291282773,1146.663459080737L300.4443871532567,1081.6399358818308Z" fill="#755240" stroke="#755240" fill-opacity="1" stroke-opacity="1"/><path d="M63.94571291282773,1146.663459080737L-103.42012165579945,1264.3109164014459L162.60245912941173,1326.0029367310926Z" fill="#70222d" stroke="#70222d" fill-opacity="1" stroke-opacity="1"/><path d="M63.94571291282773,1146.663459080737L162.60245912941173,1326.0029367310926L300.4443871532567,1081.6399358818308Z" fill="#7c4b42" stroke="#7c4b42" fill-opacity="1" stroke-opacity="1"/><path d="M300.4443871532567,1081.6399358818308L162.60245912941173,1326.0029367310926L450.94165754970163,1355.3449595952407Z" fill="#7f5d4e" stroke="#7f5d4e" fill-opacity="1" stroke-opacity="1"/><path d="M300.4443871532567,1081.6399358818308L450.94165754970163,1355.3449595952407L503.2595429685898,1115.8396751037799Z" fill="#7f7c61" stroke="#7f7c61" fill-opacity="1" stroke-opacity="1"/><path d="M503.2595429685898,1115.8396751037799L450.94165754970163,1355.3449595952407L534.3210727139376,1348.1062098545954Z" fill="#807865" stroke="#807865" fill-opacity="1" stroke-opacity="1"/><path d="M503.2595429685898,1115.8396751037799L534.3210727139376,1348.1062098545954L759.406718518585,1361.8295600032434Z" fill="#7f8071" stroke="#7f8071" fill-opacity="1" stroke-opacity="1"/><path d="M919.1553610749543,1015.6976635591127L759.406718518585,1361.8295600032434L1037.783781972248,1255.0464246910997Z" fill="#587250" stroke="#587250" fill-opacity="1" stroke-opacity="1"/><path d="M919.1553610749543,1015.6976635591127L1037.783781972248,1255.0464246910997L1039.5615931693465,1142.3756984551437Z" fill="#477c4b" stroke="#477c4b" fill-opacity="1" stroke-opacity="1"/><path d="M1039.5615931693465,1142.3756984551437L1037.783781972248,1255.0464246910997L1329.4623984396458,1349.6471647219732Z" fill="#1d543e" stroke="#1d543e" fill-opacity="1" stroke-opacity="1"/><path d="M1039.5615931693465,1142.3756984551437L1329.4623984396458,1349.6471647219732L1402.3197251139209,1123.4691121126525Z" fill="#00483d" stroke="#00483d" fill-opacity="1" stroke-opacity="1"/><path d="M1402.3197251139209,1123.4691121126525L1329.4623984396458,1349.6471647219732L1524.3531814171001,1375.3182924049906Z" fill="#002c31" stroke="#002c31" fill-opacity="1" stroke-opacity="1"/><path d="M1402.3197251139209,1123.4691121126525L1524.3531814171001,1375.3182924049906L1663.7977871485054,1050.4648086195812Z" fill="#002733" stroke="#002733" fill-opacity="1" stroke-opacity="1"/><path d="M450.94165754970163,1355.3449595952407L759.406718518585,1361.8295600032434L534.3210727139376,1348.1062098545954Z" fill="#807f6b" stroke="#807f6b" fill-opacity="1" stroke-opacity="1"/><path d="M759.406718518585,1361.8295600032434L1524.3531814171001,1375.3182924049906L1329.4623984396458,1349.6471647219732Z" fill="#094a34" stroke="#094a34" fill-opacity="1" stroke-opacity="1"/><path d="M759.406718518585,1361.8295600032434L1329.4623984396458,1349.6471647219732L1037.783781972248,1255.0464246910997Z" fill="#3a613d" stroke="#3a613d" fill-opacity="1" stroke-opacity="1"/></g></svg>