<svg width="1597" height="1026" xmlns="http://www.w3.org/2000/svg"><g><path d="M-152.86023539025337,-39.11883663618937L-252.9444167809561,162.73793226806447L105.32734804553911,100.04504301119596Z" fill="#fffefa" stroke="#fffefa" fill-opacity="1" stroke-opacity="1"/><path d="M-152.86023539025337,-39.11883663618937L105.32734804553911,100.04504301119596L148.92053361749277,-312.8412576834671Z" fill="#fff9f2" stroke="#fff9f2" fill-opacity="1" stroke-opacity="1"/><path d="M148.92053361749277,-312.8412576834671L105.32734804553911,100.04504301119596L372.1411429834552,94.14985486539081Z" fill="#fff1e3" stroke="#fff1e3" fill-opacity="1" stroke-opacity="1"/><path d="M148.92053361749277,-312.8412576834671L372.1411429834552,94.14985486539081L571.3079789374024,-303.89971704920754Z" fill="#fee7cf" stroke="#fee7cf" fill-opacity="1" stroke-opacity="1"/><path d="M571.3079789374024,-303.89971704920754L372.1411429834552,94.14985486539081L786.7973671131767,302.3291036230512Z" fill="#fed3ae" stroke="#fed3ae" fill-opacity="1" stroke-opacity="1"/><path d="M571.3079789374024,-303.89971704920754L786.7973671131767,302.3291036230512L927.1722941589542,-247.09653975907713Z" fill="#fcc198" stroke="#fcc198" fill-opacity="1" stroke-opacity="1"/><path d="M571.3079789374024,-303.89971704920754L927.1722941589542,-247.09653975907713L1611.6669511864893,-235.21539095090702Z" fill="#eea682" stroke="#eea682" fill-opacity="1" stroke-opacity="1"/><path d="M927.1722941589542,-247.09653975907713L786.7973671131767,302.3291036230512L1084.2459517996758,-130.8234843891114Z" fill="#f5b087" stroke="#f5b087" fill-opacity="1" stroke-opacity="1"/><path d="M927.1722941589542,-247.09653975907713L1084.2459517996758,-130.8234843891114L1611.6669511864893,-235.21539095090702Z" fill="#d89c81" stroke="#d89c81" fill-opacity="1" stroke-opacity="1"/><path d="M1084.2459517996758,-130.8234843891114L786.7973671131767,302.3291036230512L1245.746909675654,231.23563463566825Z" fill="#eea679" stroke="#eea679" fill-opacity="1" stroke-opacity="1"/><path d="M1084.2459517996758,-130.8234843891114L1245.746909675654,231.23563463566825L1394.9417817546055,150.48170564929023Z" fill="#d39b7e" stroke="#d39b7e" fill-opacity="1" stroke-opacity="1"/><path d="M1084.2459517996758,-130.8234843891114L1394.9417817546055,150.48170564929023L1611.6669511864893,-235.21539095090702Z" fill="#c59682" stroke="#c59682" fill-opacity="1" stroke-opacity="1"/><path d="M1611.6669511864893,-235.21539095090702L1394.9417817546055,150.48170564929023L1891.2085323827341,-155.09477325715125Z" fill="#a88a82" stroke="#a88a82" fill-opacity="1" stroke-opacity="1"/><path d="M1891.2085323827341,-155.09477325715125L1394.9417817546055,150.48170564929023L1966.6886245599017,257.23443197552115Z" fill="#9b857f" stroke="#9b857f" fill-opacity="1" stroke-opacity="1"/><path d="M-252.9444167809561,162.73793226806447L-181.00889765657485,1540.6588768423535L-164.71873374423012,629.4396006455645Z" fill="#e8a291" stroke="#e8a291" fill-opacity="1" stroke-opacity="1"/><path d="M-252.9444167809561,162.73793226806447L-164.71873374423012,629.4396006455645L105.32734804553911,100.04504301119596Z" fill="#ffefcb" stroke="#ffefcb" fill-opacity="1" stroke-opacity="1"/><path d="M105.32734804553911,100.04504301119596L-164.71873374423012,629.4396006455645L308.3951603062451,446.850533275865Z" fill="#ffd6a2" stroke="#ffd6a2" fill-opacity="1" stroke-opacity="1"/><path d="M105.32734804553911,100.04504301119596L308.3951603062451,446.850533275865L372.1411429834552,94.14985486539081Z" fill="#ffebc1" stroke="#ffebc1" fill-opacity="1" stroke-opacity="1"/><path d="M372.1411429834552,94.14985486539081L308.3951603062451,446.850533275865L412.85768882604316,471.9214503164403Z" fill="#fed091" stroke="#fed091" fill-opacity="1" stroke-opacity="1"/><path d="M372.1411429834552,94.14985486539081L412.85768882604316,471.9214503164403L786.7973671131767,302.3291036230512Z" fill="#fec986" stroke="#fec986" fill-opacity="1" stroke-opacity="1"/><path d="M786.7973671131767,302.3291036230512L412.85768882604316,471.9214503164403L924.7717279777862,656.8742807768285Z" fill="#fe973e" stroke="#fe973e" fill-opacity="1" stroke-opacity="1"/><path d="M786.7973671131767,302.3291036230512L924.7717279777862,656.8742807768285L1093.056568801403,440.7640927284956Z" fill="#f58229" stroke="#f58229" fill-opacity="1" stroke-opacity="1"/><path d="M786.7973671131767,302.3291036230512L1093.056568801403,440.7640927284956L1245.746909675654,231.23563463566825Z" fill="#ee9146" stroke="#ee9146" fill-opacity="1" stroke-opacity="1"/><path d="M1245.746909675654,231.23563463566825L1093.056568801403,440.7640927284956L1501.3252144306898,376.11764503177255Z" fill="#cf803f" stroke="#cf803f" fill-opacity="1" stroke-opacity="1"/><path d="M1245.746909675654,231.23563463566825L1501.3252144306898,376.11764503177255L1394.9417817546055,150.48170564929023Z" fill="#c48d5c" stroke="#c48d5c" fill-opacity="1" stroke-opacity="1"/><path d="M1394.9417817546055,150.48170564929023L1501.3252144306898,376.11764503177255L1966.6886245599017,257.23443197552115Z" fill="#a9815a" stroke="#a9815a" fill-opacity="1" stroke-opacity="1"/><path d="M1966.6886245599017,257.23443197552115L1501.3252144306898,376.11764503177255L1957.825332058128,405.4155948921107Z" fill="#946a42" stroke="#946a42" fill-opacity="1" stroke-opacity="1"/><path d="M1966.6886245599017,257.23443197552115L1957.825332058128,405.4155948921107L2016.3440398918465,981.807303391397Z" fill="#824319" stroke="#824319" fill-opacity="1" stroke-opacity="1"/><path d="M-164.71873374423012,629.4396006455645L-181.00889765657485,1540.6588768423535L-40.1551261683926,1181.5400625043549Z" fill="#a18791" stroke="#a18791" fill-opacity="1" stroke-opacity="1"/><path d="M-164.71873374423012,629.4396006455645L-40.1551261683926,1181.5400625043549L-38.86090998072177,812.4914237600751Z" fill="#d3988e" stroke="#d3988e" fill-opacity="1" stroke-opacity="1"/><path d="M-164.71873374423012,629.4396006455645L-38.86090998072177,812.4914237600751L308.3951603062451,446.850533275865Z" fill="#ffae84" stroke="#ffae84" fill-opacity="1" stroke-opacity="1"/><path d="M308.3951603062451,446.850533275865L-38.86090998072177,812.4914237600751L227.10458720801398,870.8379143476486Z" fill="#f89c7a" stroke="#f89c7a" fill-opacity="1" stroke-opacity="1"/><path d="M308.3951603062451,446.850533275865L227.10458720801398,870.8379143476486L412.85768882604316,471.9214503164403Z" fill="#fea568" stroke="#fea568" fill-opacity="1" stroke-opacity="1"/><path d="M412.85768882604316,471.9214503164403L227.10458720801398,870.8379143476486L637.0512677473016,877.281081865076Z" fill="#f08758" stroke="#f08758" fill-opacity="1" stroke-opacity="1"/><path d="M412.85768882604316,471.9214503164403L637.0512677473016,877.281081865076L924.7717279777862,656.8742807768285Z" fill="#fe7937" stroke="#fe7937" fill-opacity="1" stroke-opacity="1"/><path d="M924.7717279777862,656.8742807768285L637.0512677473016,877.281081865076L921.5604961686768,915.4685375071131Z" fill="#da5922" stroke="#da5922" fill-opacity="1" stroke-opacity="1"/><path d="M924.7717279777862,656.8742807768285L921.5604961686768,915.4685375071131L1229.025473871734,1003.473123467993Z" fill="#c64314" stroke="#c64314" fill-opacity="1" stroke-opacity="1"/><path d="M924.7717279777862,656.8742807768285L1229.025473871734,1003.473123467993L1410.4640711913817,887.162737029139Z" fill="#b43a13" stroke="#b43a13" fill-opacity="1" stroke-opacity="1"/><path d="M924.7717279777862,656.8742807768285L1410.4640711913817,887.162737029139L1093.056568801403,440.7640927284956Z" fill="#e14f13" stroke="#e14f13" fill-opacity="1" stroke-opacity="1"/><path d="M1093.056568801403,440.7640927284956L1410.4640711913817,887.162737029139L1501.3252144306898,376.11764503177255Z" fill="#c95614" stroke="#c95614" fill-opacity="1" stroke-opacity="1"/><path d="M1501.3252144306898,376.11764503177255L1410.4640711913817,887.162737029139L1957.825332058128,405.4155948921107Z" fill="#a94c16" stroke="#a94c16" fill-opacity="1" stroke-opacity="1"/><path d="M1957.825332058128,405.4155948921107L1410.4640711913817,887.162737029139L2016.3440398918465,981.807303391397Z" fill="#842815" stroke="#842815" fill-opacity="1" stroke-opacity="1"/><path d="M-38.86090998072177,812.4914237600751L-40.1551261683926,1181.5400625043549L227.10458720801398,870.8379143476486Z" fill="#c28c83" stroke="#c28c83" fill-opacity="1" stroke-opacity="1"/><path d="M227.10458720801398,870.8379143476486L-40.1551261683926,1181.5400625043549L306.5024511073716,1237.0295696053654Z" fill="#a57c7a" stroke="#a57c7a" fill-opacity="1" stroke-opacity="1"/><path d="M227.10458720801398,870.8379143476486L306.5024511073716,1237.0295696053654L611.9658884289674,1037.691079461947Z" fill="#ae725f" stroke="#ae725f" fill-opacity="1" stroke-opacity="1"/><path d="M227.10458720801398,870.8379143476486L611.9658884289674,1037.691079461947L637.0512677473016,877.281081865076Z" fill="#c7714d" stroke="#c7714d" fill-opacity="1" stroke-opacity="1"/><path d="M637.0512677473016,877.281081865076L611.9658884289674,1037.691079461947L921.5604961686768,915.4685375071131Z" fill="#c35a2e" stroke="#c35a2e" fill-opacity="1" stroke-opacity="1"/><path d="M921.5604961686768,915.4685375071131L611.9658884289674,1037.691079461947L881.9555192580447,1331.8379015172832Z" fill="#a24625" stroke="#a24625" fill-opacity="1" stroke-opacity="1"/><path d="M921.5604961686768,915.4685375071131L881.9555192580447,1331.8379015172832L1097.4230539635755,1229.2277778754942Z" fill="#8c3117" stroke="#8c3117" fill-opacity="1" stroke-opacity="1"/><path d="M921.5604961686768,915.4685375071131L1097.4230539635755,1229.2277778754942L1229.025473871734,1003.473123467993Z" fill="#992f12" stroke="#992f12" fill-opacity="1" stroke-opacity="1"/><path d="M1229.025473871734,1003.473123467993L1097.4230539635755,1229.2277778754942L1469.8171221208759,1379.8548048501834Z" fill="#601a13" stroke="#601a13" fill-opacity="1" stroke-opacity="1"/><path d="M1229.025473871734,1003.473123467993L1469.8171221208759,1379.8548048501834L1636.1284102266654,1148.6618256592192Z" fill="#521514" stroke="#521514" fill-opacity="1" stroke-opacity="1"/><path d="M1229.025473871734,1003.473123467993L1636.1284102266654,1148.6618256592192L1410.4640711913817,887.162737029139Z" fill="#762314" stroke="#762314" fill-opacity="1" stroke-opacity="1"/><path d="M1410.4640711913817,887.162737029139L1636.1284102266654,1148.6618256592192L2016.3440398918465,981.807303391397Z" fill="#5a1815" stroke="#5a1815" fill-opacity="1" stroke-opacity="1"/><path d="M2016.3440398918465,981.807303391397L1636.1284102266654,1148.6618256592192L1967.4620608892292,1186.5522051369771Z" fill="#310815" stroke="#310815" fill-opacity="1" stroke-opacity="1"/><path d="M-40.1551261683926,1181.5400625043549L-181.00889765657485,1540.6588768423535L269.09164398210123,1514.8265558225103Z" fill="#807a86" stroke="#807a86" fill-opacity="1" stroke-opacity="1"/><path d="M-40.1551261683926,1181.5400625043549L269.09164398210123,1514.8265558225103L306.5024511073716,1237.0295696053654Z" fill="#7f7379" stroke="#7f7379" fill-opacity="1" stroke-opacity="1"/><path d="M306.5024511073716,1237.0295696053654L269.09164398210123,1514.8265558225103L436.10118626849726,1548.8253088667989Z" fill="#7f6965" stroke="#7f6965" fill-opacity="1" stroke-opacity="1"/><path d="M306.5024511073716,1237.0295696053654L436.10118626849726,1548.8253088667989L699.0458115749061,1545.7306782202795Z" fill="#7f5c4f" stroke="#7f5c4f" fill-opacity="1" stroke-opacity="1"/><path d="M306.5024511073716,1237.0295696053654L699.0458115749061,1545.7306782202795L611.9658884289674,1037.691079461947Z" fill="#805746" stroke="#805746" fill-opacity="1" stroke-opacity="1"/><path d="M611.9658884289674,1037.691079461947L699.0458115749061,1545.7306782202795L881.9555192580447,1331.8379015172832Z" fill="#7e452d" stroke="#7e452d" fill-opacity="1" stroke-opacity="1"/><path d="M881.9555192580447,1331.8379015172832L699.0458115749061,1545.7306782202795L1218.8144989055581,1675.5890240543522Z" fill="#763019" stroke="#763019" fill-opacity="1" stroke-opacity="1"/><path d="M881.9555192580447,1331.8379015172832L1218.8144989055581,1675.5890240543522L1097.4230539635755,1229.2277778754942Z" fill="#6d2412" stroke="#6d2412" fill-opacity="1" stroke-opacity="1"/><path d="M1097.4230539635755,1229.2277778754942L1218.8144989055581,1675.5890240543522L1469.8171221208759,1379.8548048501834Z" fill="#511a13" stroke="#511a13" fill-opacity="1" stroke-opacity="1"/><path d="M1636.1284102266654,1148.6618256592192L1469.8171221208759,1379.8548048501834L1764.1543828044087,1456.5352286933921Z" fill="#290b14" stroke="#290b14" fill-opacity="1" stroke-opacity="1"/><path d="M1636.1284102266654,1148.6618256592192L1764.1543828044087,1456.5352286933921L1967.4620608892292,1186.5522051369771Z" fill="#1a0415" stroke="#1a0415" fill-opacity="1" stroke-opacity="1"/><path d="M-181.00889765657485,1540.6588768423535L1218.8144989055581,1675.5890240543522L436.10118626849726,1548.8253088667989Z" fill="#7f5b4e" stroke="#7f5b4e" fill-opacity="1" stroke-opacity="1"/><path d="M-181.00889765657485,1540.6588768423535L436.10118626849726,1548.8253088667989L269.09164398210123,1514.8265558225103Z" fill="#7f7379" stroke="#7f7379" fill-opacity="1" stroke-opacity="1"/><path d="M436.10118626849726,1548.8253088667989L1218.8144989055581,1675.5890240543522L699.0458115749061,1545.7306782202795Z" fill="#7c3f27" stroke="#7c3f27" fill-opacity="1" stroke-opacity="1"/><path d="M1218.8144989055581,1675.5890240543522L1764.1543828044087,1456.5352286933921L1469.8171221208759,1379.8548048501834Z" fill="#391114" stroke="#391114" fill-opacity="1" stroke-opacity="1"/></g></svg>